<svg xmlns="http://www.w3.org/2000/svg" width="120" height="120" viewBox="0 0 120 120"><defs><style>.a{fill:#fff;stroke:#e94b3c;}.b{fill:#e94b3c;}.c{stroke:none;}.d{fill:none;}</style></defs><g transform="translate(-981 -878)"><g class="a" transform="translate(981 878)"><circle class="c" cx="60" cy="60" r="60"/><circle class="d" cx="60" cy="60" r="59.5"/></g><path class="b" d="M12.232,22l-1.055,1.055a1.135,1.135,0,0,1-1.611,0L.331,13.828a1.135,1.135,0,0,1,0-1.611L9.567,2.982a1.135,1.135,0,0,1,1.611,0l1.055,1.055a1.141,1.141,0,0,1-.019,1.63L6.489,11.12H20.142a1.137,1.137,0,0,1,1.14,1.14v1.52a1.137,1.137,0,0,1-1.14,1.14H6.489l5.725,5.454A1.133,1.133,0,0,1,12.232,22Z" transform="translate(1027.84 948.972) rotate(-90)"/></g></svg>