<?xml version="1.0" ?><svg height="24px" version="1.1" viewBox="0 0 24 24" width="24px" xmlns="http://www.w3.org/2000/svg" xmlns:sketch="http://www.bohemiancoding.com/sketch/ns" xmlns:xlink="http://www.w3.org/1999/xlink"><title/><desc/><defs/><g fill="none" fill-rule="evenodd" id="miu" stroke="none" stroke-width="1"><g id="Artboard-1" transform="translate(-863.000000, -659.000000)"><g id="slice" transform="translate(215.000000, 119.000000)"/><path d="M875,682 C881.075133,682 886,677.075133 886,671 C886,664.924867 881.075133,660 875,660 C868.924867,660 864,664.924867 864,671 C864,677.075133 868.924867,682 875,682 Z M875,681 C880.522848,681 885,676.522848 885,671 C885,665.477152 880.522848,661 875,661 C869.477152,661 865,665.477152 865,671 C865,676.522848 869.477152,681 875,681 Z M881,675 L878.56885,675 L878.56885,671.4846 C878.56885,670.564449 878.188558,669.936287 877.352305,669.936287 C876.712665,669.936287 876.35695,670.360184 876.191381,670.768714 C876.129292,670.915349 876.138993,671.119613 876.138993,671.323878 L876.138993,675 L873.73048,675 C873.73048,675 873.761524,668.772812 873.73048,668.206762 L876.138993,668.206762 L876.138993,669.272908 C876.281279,668.806749 877.050917,668.141448 878.279104,668.141448 C879.802857,668.141448 881,669.118589 881,671.222706 L881,675 Z M871.294802,667.357047 L871.27928,667.357047 C870.503175,667.357047 870,666.837741 870,666.179484 C870,665.50842 870.51805,665 871.309678,665 C872.100659,665 872.587018,665.50714 872.60254,666.177563 C872.60254,666.83582 872.100659,667.357047 871.294802,667.357047 Z M870.277458,668.206762 L872.421449,668.206762 L872.421449,675 L870.277458,675 L870.277458,668.206762 Z" fill="#ffffff" id="circle-social-linkedin-outline-stroke"/></g></g></svg>
