<svg xmlns="http://www.w3.org/2000/svg" width="152.239" height="149.127" viewBox="0 0 152.239 149.127"><defs><style>.a{fill:none;stroke:#e94b3c;stroke-miterlimit:10;stroke-width:2px;}.b{fill:#e94b3c;}</style></defs><g transform="translate(-148.398 -281.261)"><g transform="translate(169.497 282.315)"><path class="a" d="M207.06,366.256c-13.5-4.538-19.984-22.087-17.006-30.333,6.911-19.131,40.382-36.983,60.669-49.94,10.913-6.97,22.908-1.2,22.908-1.2" transform="translate(-188.364 -282.419)"/><path class="a" d="M211.346,320.158c2.375-15.231,21.67-44.028,54.585-36.657" transform="translate(-198.504 -282.315)"/><path class="a" d="M389.533,389.505" transform="translate(-280.613 -331.708)"/><path class="a" d="M373.194,348.873s5.172,8.54,3.3,25.681c-.471,4.307.994,6.778.653,8.58a4.451,4.451,0,0,1-2.966,3.147c-.9.177-2.381,2.862-2.075,4.135,0,0,1.177,3.638,3.107,18.478.255,1.957-.245,3.984-3.84,3.984-.617,0-.675.09-4.248-1.625-.372-.178-.782-.376-1.235-.6a4.843,4.843,0,0,1-.782.2c-4.644-.128-3.813-3.582-3.217-4.577a6.314,6.314,0,0,1,1.62-1.135" transform="translate(-267.659 -312.985)"/><path class="a" d="M336.971,414.473c5.318-1.689,12.011-4.5,15.078,3.413" transform="translate(-256.392 -342.339)"/><path class="a" d="M343.576,422.424s6.07,3.681,7.8,2.421" transform="translate(-259.436 -346.877)"/><path class="a" d="M354.111,404.993s3.128.359,2.236-2.462c-.809-2.557-13.539-5.586-15.828-5.094-3.651.785-7.681,3.778-7.681,3.778l.284.849s6.476-3.1,8.668-2.53c2.089.544,11.845,5.192,11.845,5.192Z" transform="translate(-254.488 -335.339)"/><path class="a" d="M353.456,418.826a2.4,2.4,0,1,1-1.624-2.618A2.195,2.195,0,0,1,353.456,418.826Z" transform="translate(-261.883 -343.948)"/><path class="a" d="M368.908,477.441" transform="translate(-271.109 -372.229)"/><path class="a" d="M287.235,382.718c-1.217,1.137-1.907,6.828-1.907,6.828s-1.542,2.6-3.022,3.092a.109.109,0,0,0-.075.164,4.4,4.4,0,0,1,.2,4.544,5.461,5.461,0,0,1-1.308,1.132,25.309,25.309,0,0,0-.131,13.421c.849,3.037.094,7.626-4.47,10.764-2.979,2.047-12.6-1.155-12.6-1.155s-21.939-10.112-27.745-15.043c-1.769-1.5-3.509-5.852-4.135-9.869-.907-5.82-.8-8.02-1.23-13.689a5.993,5.993,0,0,0-.244-1.144l-1.5-.365c-5.914,15.943,7.278,31.276-1.357,45.8s-40.175-13.914-40.175-13.914,4.334-5.641,6.419-8.238c6.181-7.7,6.017-15.767,8.092-23.459.434-1.607,2.325-7.322,2.325-7.322l1.86-6.1a4.749,4.749,0,0,0,1.311.278c9.089-.264,13-32.926,26.127-51.957,8.728-12.656,12.432-16.017,21.48-23.563,11.912-9.933,43.638-9.578,48.216,12.8.862,4.216-6.32,12.054-10.3,14.49a8.005,8.005,0,0,1-.878.473c-4.922,2.212-14.834,4.87-20.516,6.426-9.657,2.643-21.8,13.063-26.984,15.452-14.9,6.872-15.942,6.212-26.573,9.653" transform="translate(-187.529 -284.335)"/><path class="a" d="M361.743,493.76" transform="translate(-267.807 -379.749)"/><path class="a" d="M389.963,352.074s16.982-15.144,6.75-29.119" transform="translate(-280.811 -301.042)"/><path class="a" d="M248.157,403.287c-5,8.963,2.169,16.133,3.079,20.766,1.063,5.409,3.875,9.926,6.457,9.689,0,0,5.252-.465,5.722-7.258.2-2.947-1.2-5.29-.094-10.861.886-4.448,2.445-5.569-3.069-16.124" transform="translate(-214.657 -336.314)"/><path class="a" d="M256.182,413.3c-.646-.335-.18-2.051-.18-2.051s.617-2.958,2.658-3.048c1.06-.047,4,.036,4.082,3.356l-1.511,10.821s-.772,4.009,1.874,4.953" transform="translate(-219.007 -340.32)"/><path class="a" d="M303.43,379.976s-2.129,14.534-6.549,21.062c-3.589,5.3,4.9,8.177,4.4,24.516,0,0-1.476,14.448,11.5,16.793,1.23.222,3.323-6.94,5.068-9.818,1.288-2.124,3.8-4.594,8.993-4.219,1.65.12,4.6.845,6.856-.013.914-.349,1.612-.969,2.514-.428" transform="translate(-237.51 -327.317)"/><path class="a" d="M355.275,483.068s-5.6-.544-7.429-.208a10.026,10.026,0,0,0-1.559.663" transform="translate(-260.685 -374.676)"/><path class="a" d="M353.545,476.287s-11.2-3.255-13.817.34a22.616,22.616,0,0,0-4.151,11.384,4.131,4.131,0,0,0,2.481,3.71c1.016.24,3.427-.3,3.775-1.387,1.2-3.77.2-4.853,4.957-5.247.8-.066,2.714,0,2.714,0" transform="translate(-255.745 -371.075)"/></g><g transform="translate(148.398 350.541)"><path class="b" d="M187.01,497.53l2.979,2.944,2.944-2.944-2.944-2.945Z" transform="translate(-166.19 -448.356)"/><path class="b" d="M175.309,497.53l2.979,2.944,2.944-2.944-2.944-2.945Z" transform="translate(-160.799 -448.356)"/><path class="b" d="M238.611,434.084c-1.928-.21-4.276-1.051-4.276-3.926,0-1.822,1.613-3.119,5.818-3.119h3.224l-3.084-6.308h-.14c-7.361,0-11.636,3.89-11.636,9.427a5.867,5.867,0,0,0,1.3,3.926h-5.853c-1.226,0-2.138-.035-2.138-2.594V408.848L216,411.758V431.49c0,1.928-.666,2.594-2.734,2.594h-1.365c-.842,0-1.473-.105-1.473-1.507,0-6.028-3.785-10.27-9.288-10.27-5.538,0-9.323,4.241-9.323,10.27,0,1.4-1.016,1.507-3.154,1.507h-9.462c-2.874,0-5.117-.981-8.271-3.4l-3.61,4.276c1.471,1.437,4.206,2.944,6.624,4.381,3.575,2.1,5.713,3.5,5.748,4.311.07.666-1.3.946-4.416.946H161.612c-4.1,0-7.5-2.593-7.605-5.712l-5.608,1.962c1.157,5.819,6.694,10.06,13.214,10.06h15.737c5.258,0,8.2-2.8,8.272-6.1a6.814,6.814,0,0,0-1.647-4.416h4.695a7.9,7.9,0,0,0,5.082-1.507,8.863,8.863,0,0,0,7.4,3.645,8.973,8.973,0,0,0,7.36-3.575,4.873,4.873,0,0,0,3.89,1.437h.875a8.428,8.428,0,0,0,5.993-2.174,6.023,6.023,0,0,0,4.033,2.106,3.647,3.647,0,0,0,.7.068h21.941l3.155-6.309Zm-37.465,2.138a3.463,3.463,0,0,1-3.505-3.645c0-2.383,1.437-4,3.505-4s3.47,1.613,3.47,4A3.417,3.417,0,0,1,201.146,436.222Z" transform="translate(-148.398 -408.848)"/></g><g transform="translate(215.926 304.64)"><path class="b" d="M292.282,353.581c0,4.136-2.594,5.888-6.309,5.888H285.9c-3.365,0-6.449-1.752-6.449-5.888v-4.627l-5.818,2.909v1.717c0,7.64,5.713,12.2,12.267,12.2h.071c6.9,0,12.127-4.556,12.127-12.2V323.719l-5.818,2.909Z" transform="translate(-273.636 -323.719)"/><path class="b" d="M362.172,333.424l-2.944-2.944-2.979,2.944,2.979,2.944Z" transform="translate(-311.704 -326.834)"/><path class="b" d="M373.872,333.424l-2.944-2.944-2.979,2.944,2.979,2.944Z" transform="translate(-317.096 -326.834)"/><path class="b" d="M374.458,337.178c-5.538,0-9.323,4.241-9.323,10.27,0,1.4-1.016,1.507-3.154,1.507h-3.5a7.732,7.732,0,0,0,.841-3.61c0-5.292-4.381-10.2-9.534-10.2-5.117,0-9.568,4.872-9.568,10.2a7.738,7.738,0,0,0,.841,3.61h-4.7c-1.612,0-1.787-.21-1.787-1.542V323.719l-5.818,2.909v20.784c0,5.643,2.8,7.851,7.6,7.851h25.62a7.9,7.9,0,0,0,5.082-1.507,8.863,8.863,0,0,0,7.4,3.645c5.5,0,9.288-4.171,9.288-9.954C383.745,341.419,379.96,337.178,374.458,337.178Zm-24.674,11.777a3.594,3.594,0,0,1-3.75-3.61,3.736,3.736,0,1,1,7.466,0A3.545,3.545,0,0,1,349.783,348.955Zm24.674,2.138a3.463,3.463,0,0,1-3.5-3.645c0-2.383,1.437-4,3.5-4s3.47,1.612,3.47,4A3.417,3.417,0,0,1,374.458,351.092Z" transform="translate(-299.035 -323.719)"/></g></g></svg>