<svg xmlns="http://www.w3.org/2000/svg" width="142.544" height="121.423" viewBox="0 0 142.544 121.423"><defs><style>.a{fill:#e94b3c;stroke:#e94b3c;stroke-miterlimit:10;stroke-width:2px;}.b{fill:#fff;}</style></defs><g transform="translate(-1178.489 -39.932)"><rect class="a" width="140.544" height="119.423" transform="translate(1179.489 40.932)"/><path class="b" d="M1229.425,85.221V77.348h5.274v7.873a2.508,2.508,0,0,0,2.635,2.634h5.236a2.508,2.508,0,0,0,2.637-2.634V56.294h5.272V85.221a7.588,7.588,0,0,1-7.909,7.909h-5.236A7.589,7.589,0,0,1,1229.425,85.221Z"/><path class="b" d="M1261.262,77.348V82.62h-5.5V56.294h5.272V77.348Z"/><path class="b" d="M1258.443,80.726V79.242a1.855,1.855,0,0,1,1.894-1.894h5.979V74.711a7.607,7.607,0,0,1,7.9-7.91h7.873V82.62h-21.757A1.855,1.855,0,0,1,1258.443,80.726Zm9.023-21.5a2.9,2.9,0,1,1,2.9,2.859A2.876,2.876,0,0,1,1267.466,59.229Zm9.4,18.119V72.077h-2.641a2.549,2.549,0,0,0-2.634,2.634v2.637Zm-1.117-18.119a2.9,2.9,0,1,1,2.9,2.859A2.876,2.876,0,0,1,1275.745,59.229Z"/><path class="b" d="M1286.97,82.62H1281.4a1.856,1.856,0,0,1-1.894-1.894V79.242a1.855,1.855,0,0,1,1.894-1.894h5.606a7.411,7.411,0,0,1,7.466-5.235,7.891,7.891,0,1,1,0,15.782A7.453,7.453,0,0,1,1286.97,82.62Zm10.137-2.674a2.512,2.512,0,0,0-2.634-2.562,2.618,2.618,0,0,0,0,5.236A2.514,2.514,0,0,0,1297.107,79.946Z"/><path class="b" d="M1245.077,130.844v5.276h-5.829v-7.91a2.52,2.52,0,0,0-2.636-2.6h-2.637V136.12H1205.05a7.589,7.589,0,0,1-7.909-7.91v-2.6h5.273v2.6a2.507,2.507,0,0,0,2.636,2.634H1228.7V120.337h7.909a7.6,7.6,0,0,1,7.908,7.873v2.634ZM1213.813,142.1a2.9,2.9,0,1,1,2.9,2.9A2.869,2.869,0,0,1,1213.813,142.1Zm8.28,0a2.9,2.9,0,1,1,2.9,2.9A2.87,2.87,0,0,1,1222.093,142.1Z"/><path class="b" d="M1249.41,136.12h-5.569a1.856,1.856,0,0,1-1.893-1.894v-1.488a1.858,1.858,0,0,1,1.893-1.894h5.608a7.963,7.963,0,0,1,14.962,0h.522v5.276h-.522a7.972,7.972,0,0,1-15,0Zm10.139-2.674a2.62,2.62,0,0,0-5.239.036,2.481,2.481,0,0,0,2.6,2.638A2.52,2.52,0,0,0,1259.549,133.446Z"/><path class="b" d="M1276.006,130.844v5.276h-11.769a1.855,1.855,0,0,1-1.894-1.894v-1.488a1.857,1.857,0,0,1,1.894-1.894h5.979v-21.05h5.235v21.05Z"/><path class="b" d="M1272.857,134.226v-1.488a1.857,1.857,0,0,1,1.894-1.894h5.979V128.21a7.548,7.548,0,0,1,7.873-7.873h7.909v5.272H1288.6a2.523,2.523,0,0,0-2.638,2.6v2.634h15.815v5.276h-27.029A1.855,1.855,0,0,1,1272.857,134.226Z"/></g></svg>